<svg width="109" height="45" viewBox="0 0 109 45" fill="none" xmlns="http://www.w3.org/2000/svg">
<path fill-rule="evenodd" clip-rule="evenodd" d="M0 2.29178H11.5577C14.3251 2.29178 17.0416 2.49654 19.7323 2.93209C22.3972 3.34254 24.9085 4.52113 27.2664 6.4172C29.4702 8.28816 31.187 10.6716 32.4172 13.5671C33.673 16.4625 34.3649 19.4354 34.4674 22.5105C34.5187 22.7155 34.5443 22.9463 34.5443 23.1766C34.5443 23.3819 34.5443 23.6124 34.5443 23.8432C34.5443 23.9201 34.5443 23.9971 34.5443 24.074C34.5443 24.1251 34.5443 24.2018 34.5443 24.3046C34.4674 27.5075 33.801 30.5826 32.5453 33.5808C31.3153 36.5542 29.4959 38.9885 27.0869 40.9097C24.9603 42.4736 22.7049 43.4721 20.2706 43.9341C17.8618 44.421 15.3761 44.6774 12.8648 44.7797C12.4548 44.7797 12.019 44.7797 11.5835 44.7797C11.1477 44.7797 10.7122 44.7797 10.251 44.7797H0V2.29178ZM8.45677 37.1171C8.73869 37.1171 9.04641 37.1171 9.37947 37.1431C9.71252 37.168 10.0716 37.168 10.4302 37.168C10.5585 37.168 10.6608 37.168 10.7891 37.168C10.8913 37.168 10.9938 37.168 11.1221 37.168C11.3783 37.2203 11.6091 37.2451 11.8654 37.2451C12.1215 37.2451 12.3523 37.2451 12.5571 37.2451C12.9671 37.2451 13.3771 37.2203 13.7873 37.194C14.1973 37.194 14.6072 37.1429 15.043 37.1168C16.273 37.0148 17.5029 36.7842 18.7076 36.4507C19.8864 36.0921 20.9369 35.5543 21.8083 34.8371C23.1663 33.684 24.1915 32.1203 24.8834 30.1729C25.5753 28.2255 25.9339 26.2006 25.9597 24.0993C25.9597 24.048 25.9597 23.9971 25.9597 23.9457C25.9597 23.8688 25.9597 23.7918 25.9597 23.6893C25.9597 23.6124 25.9597 23.5355 25.9597 23.4588C25.9597 23.4074 25.9597 23.3305 25.9597 23.228C25.9339 21.1523 25.5753 19.1277 24.9089 17.2058C24.2428 15.2581 23.2432 13.6693 21.9361 12.4394C20.9881 11.5427 19.8862 10.9273 18.6306 10.5942C17.4007 10.2612 16.1191 10.0817 14.7864 10.0304C14.5047 9.97924 14.197 9.95344 13.9151 9.95344C13.6334 9.95344 13.3257 9.95344 13.0438 9.95344H8.45677V37.1171ZM58.3507 44.0873L55.7627 41.038C54.6606 42.0639 53.3795 42.9094 51.9443 43.5495C50.5093 44.2156 49.023 44.6002 47.5365 44.7285C47.3826 44.7534 47.229 44.7797 47.0751 44.7797C46.9213 44.7797 46.7676 44.7797 46.614 44.7797C46.2807 44.7797 45.9732 44.7536 45.6402 44.7285C45.3071 44.7025 44.9996 44.6514 44.6666 44.6265C44.0256 44.4982 43.3853 44.319 42.7447 44.0875C42.1039 43.8572 41.5145 43.5757 40.9249 43.2171C39.8741 42.4987 39.0544 41.5511 38.4136 40.3981C37.7731 39.2191 37.3886 38.0149 37.2603 36.7847C37.2348 36.6304 37.2348 36.4772 37.2348 36.3489C37.2348 36.2206 37.2348 36.0923 37.2348 35.9643C37.2348 35.8622 37.2348 35.76 37.2348 35.6317C37.2603 35.5034 37.2603 35.3751 37.2603 35.247C37.2603 35.1959 37.2861 35.1699 37.2861 35.145C37.3115 35.0927 37.3115 35.0678 37.3115 34.9907C37.3115 34.9395 37.337 34.8624 37.337 34.7604C37.3628 34.6832 37.3628 34.606 37.3628 34.5549C37.6959 32.7358 38.4645 31.2241 39.6947 30.0188C40.9246 28.8146 42.2831 27.7639 43.7436 26.8161C42.8212 25.8425 42.0779 24.7917 41.4632 23.6638C40.8482 22.5621 40.5405 21.3833 40.5405 20.2045C40.5405 19.9739 40.5405 19.7431 40.5916 19.4868C40.6172 19.2564 40.643 18.9998 40.6688 18.7951C40.7199 18.6157 40.7455 18.462 40.7966 18.3079C40.8479 18.1287 40.8991 17.9751 40.9246 17.821C41.4374 16.2066 42.4368 15.0536 43.8975 14.3103C45.3585 13.5673 46.8957 13.1829 48.5614 13.1829C50.6372 13.1829 52.5335 13.7465 54.2506 14.8742C55.9674 15.9759 56.839 17.6416 56.839 19.794V20.3323C56.7107 21.6908 56.1985 22.8691 55.3269 23.8432C54.4556 24.8168 53.5075 25.6881 52.5081 26.4825C52.2773 26.6108 52.0468 26.7391 51.8416 26.9183C51.6368 27.072 51.4316 27.2258 51.2266 27.3539L56.4286 33.4277C56.7107 33.1711 56.9671 32.9147 57.223 32.6581C57.4796 32.4015 57.7101 32.1463 57.9409 31.8637C58.4787 31.3519 58.9912 30.813 59.5042 30.2749C60.0166 29.7108 60.5035 29.173 60.9649 28.6089L64.4244 32.2744C64.0398 32.6842 63.63 33.0937 63.2454 33.5034C62.8612 33.9143 62.4765 34.3239 62.0924 34.7597C61.6566 35.1694 61.2468 35.5789 60.8622 35.9898C60.478 36.3996 60.0933 36.8091 59.7091 37.22L65.3983 44.0871L58.3507 44.0873ZM43.59 37.7072C43.9231 38.143 44.2566 38.5016 44.5641 38.783C44.8969 39.0905 45.2302 39.296 45.5888 39.4754C45.9221 39.6546 46.2296 39.808 46.5626 39.8852C46.8957 39.9623 47.2032 40.0135 47.5362 40.0135C48.2284 40.0135 48.8687 39.8603 49.4581 39.6037C50.0478 39.3211 50.6114 38.9887 51.0983 38.6301C51.5338 38.3226 52.0463 37.8868 52.5846 37.3228L46.7674 30.3786C46.6391 30.4546 46.5113 30.5578 46.3574 30.634C46.2296 30.7112 46.1269 30.8132 46.0244 30.8906C45.4094 31.4284 44.82 32.0187 44.2817 32.6849C43.7181 33.351 43.3337 34.0433 43.1029 34.7606C43.0515 34.9398 43.0004 35.1192 42.9746 35.2984C42.9234 35.4776 42.9234 35.6831 42.9234 35.8625C42.9234 36.1951 42.9746 36.5026 43.1026 36.81C43.2307 37.1175 43.4108 37.4246 43.59 37.7072ZM48.2539 24.3815C48.3051 24.3557 48.3309 24.3301 48.3567 24.3046C48.4078 24.2788 48.4331 24.2788 48.5101 24.2276C48.5359 24.2018 48.587 24.1763 48.6128 24.1251C48.6384 24.0996 48.6639 24.0996 48.7153 24.0996C49.3558 23.6384 49.9453 23.1515 50.5091 22.6646C51.0469 22.1519 51.406 21.4858 51.5852 20.6914V20.1022C51.5852 19.2564 51.2779 18.5645 50.6883 18.052C50.1247 17.5393 49.4837 17.2318 48.792 17.1293C48.7406 17.1293 48.6637 17.1293 48.6128 17.1293C48.5359 17.1293 48.4845 17.1293 48.4078 17.1293C48.3822 17.1293 48.3309 17.1293 48.2797 17.1293C48.2539 17.1293 48.177 17.1293 48.1257 17.1293C47.6134 17.1807 47.1009 17.4115 46.6393 17.7955C46.1782 18.1543 45.8963 18.7182 45.8452 19.4612C45.8452 19.4868 45.8196 19.5384 45.8196 19.5895C45.7938 19.6409 45.7938 19.6918 45.7938 19.7687C45.7938 19.7943 45.7682 19.8201 45.7682 19.871C45.7427 19.9223 45.7427 19.9737 45.7427 20.0506C45.7427 20.6912 45.9219 21.3064 46.2805 21.8442C46.6391 22.408 47.0238 22.9463 47.4337 23.4588C47.6129 23.6124 47.7412 23.7663 47.8695 23.9199C47.9978 24.074 48.1257 24.2276 48.2539 24.3815ZM108.706 21.6394V23.0488C108.706 26.8925 108.065 30.4804 106.784 33.8372C105.502 37.194 103.043 39.911 99.3267 41.9865C98.1481 42.7548 96.867 43.3187 95.4318 43.7545C94.0224 44.1642 92.6128 44.4717 91.2034 44.6509C90.6905 44.6769 90.2036 44.7281 89.7429 44.7529C89.2553 44.7529 88.7946 44.779 88.3335 44.779C88.0516 44.779 87.7952 44.779 87.5138 44.779C87.2316 44.779 86.9753 44.7529 86.6931 44.7018C83.2598 44.4975 79.9793 43.5488 76.7763 41.8828C73.5987 40.2429 71.01 38.014 69.0628 35.2201C68.0892 33.7345 67.3204 32.1196 66.7307 30.4288C66.1418 28.7368 65.7571 27.0201 65.5524 25.2777C65.5268 24.9442 65.4752 24.5602 65.4496 24.2014C65.4496 23.8172 65.4241 23.4328 65.4241 23.0483C65.4241 18.9736 66.4748 15.1041 68.6017 11.4142C70.729 7.72385 73.7274 4.93065 77.5965 3.03435C78.4165 2.6239 79.2625 2.29131 80.1336 2.03472C81.0047 1.75303 81.8763 1.52224 82.7987 1.29168C83.6698 1.11249 84.5161 0.984191 85.3869 0.907261C86.2578 0.805461 87.1033 0.779663 87.9231 0.779663C88.0002 0.779663 88.1023 0.779663 88.2308 0.779663C88.3333 0.779663 88.4355 0.779663 88.538 0.779663C91.8695 0.856593 95.0983 1.651 98.2508 3.11175C101.377 4.59783 104.093 6.64799 106.374 9.26176L100.224 13.7463C98.5323 12.0805 96.764 10.7994 94.8677 9.87674C92.9714 8.97984 90.9468 8.51849 88.82 8.51849C88.1283 8.51849 87.4106 8.56985 86.6926 8.64678C85.9501 8.74905 85.2066 8.87711 84.438 9.05677C81.2857 10.0304 78.928 11.8504 77.3139 14.5151C75.7251 17.2058 74.9307 20.0248 74.9307 23.0486C74.9307 23.2533 74.9307 23.4841 74.956 23.7405C74.9823 23.9708 75.0332 24.2016 75.0587 24.4324C75.0587 24.5607 75.0843 24.689 75.1099 24.7912C75.1354 24.8935 75.1352 25.0218 75.1352 25.1499C75.187 25.2526 75.2124 25.3551 75.2379 25.4834C75.2635 25.6112 75.2635 25.7395 75.2635 25.8162C75.8273 29.1221 77.2367 31.7357 79.5428 33.6071C81.8495 35.4774 84.3355 36.6304 87.0255 37.015C87.3846 37.1171 87.7945 37.1682 88.2045 37.1942C88.6145 37.2203 88.9989 37.2203 89.3576 37.2203C91.9207 37.2203 94.1754 36.5279 96.1999 35.1696C98.1987 33.7863 99.1977 31.8389 99.1977 29.2764L99.326 28.9938H88.8706V21.6394H108.706Z" fill="#13101E"/>
</svg>
