<svg width="111" height="47" viewBox="0 0 111 47" fill="none" xmlns="http://www.w3.org/2000/svg">
<path d="M104.41 45.021L88.2074 0.411639L88.1962 0.382202H87.8765L84.5399 9.54931L78.4658 26.2381L78.4515 26.2249C76.3463 24.3673 73.3762 23.2061 69.6356 22.7737L68.4947 22.6559L69.6265 22.5108C75.7951 21.4023 79.9417 17.5065 79.9417 12.8128C79.9417 6.37621 73.8878 1.8835 65.216 1.8835H47.1731V2.20934H52.416V35.4682L39.6829 0.411639L39.6717 0.382202H39.352L36.0154 9.54931L23.1464 44.9063L23.0672 44.9154C22.8472 44.9425 22.6297 44.9641 22.4145 44.9804C22.0907 45.0058 21.7689 45.021 21.4461 45.021H8.44306L33.1601 2.20933L33.3438 1.88755H3.11394V15.1312H3.4347C3.49154 8.68041 7.24832 2.20933 15.5486 2.20933H25.5622L0.658478 45.3418H34.2086V32.6534H33.8879C33.8442 38.2758 30.6569 43.6161 23.726 44.822L23.5057 44.8596L28.7841 30.3512H43.5706L48.8987 45.021H43.6427V45.3418H64.272V45.021H58.9936V22.8924H65.0841C71.2821 22.8924 74.8369 25.6615 74.8369 30.4872V34.4125C74.8369 34.8449 74.8663 35.4773 74.8988 36.0061V36.0254L71.6252 45.019H67.3487V45.3397H76.2011V45.019H71.9703L74.9516 36.8294C74.9577 36.9085 74.9607 36.9562 74.9607 36.9562L75.0429 37.6942L75.1221 38.1824C75.6195 41.2023 76.7746 43.4223 78.5541 44.7804L78.8099 44.9662C80.1619 45.9061 81.8419 46.3822 83.806 46.3822C86.4077 46.3822 88.1424 45.7336 89.5747 44.2069L89.3869 44.0303C88.0673 45.2484 86.9599 45.7417 85.5723 45.7417C83.2082 45.7417 81.9708 42.8741 81.9708 40.0461V34.5465C81.9834 33.1818 81.7697 31.8246 81.3384 30.5298L81.2795 30.3593V30.3532H92.0951L97.4232 45.023H92.1672V45.3438H110.019V45.023L104.41 45.021ZM28.9018 30.0304L36.186 10.0183L43.4539 30.0304H28.9018ZM58.9967 22.5707V2.20933H63.6457C69.8559 2.20933 73.1346 5.90115 73.1346 12.8818C73.1346 20.306 71.2526 22.5707 65.0841 22.5707H58.9967ZM81.1537 30.0304L81.1222 29.9512C80.6416 28.7807 79.9419 27.7126 79.0606 26.8045L78.7561 26.5L78.7236 26.4695L84.7064 10.0183L91.9743 30.0304H81.1537Z" fill="#13101E"/>
</svg>
